<svg width="154" height="55" viewBox="0 0 154 55" fill="none" xmlns="http://www.w3.org/2000/svg">
<rect x="1" y="1" width="152" height="53" rx="26.5" stroke="#FB4C47" stroke-width="2"/>
<path d="M51.5918 34.2373C50.4375 34.2373 49.4092 33.9883 48.5068 33.4902C47.6104 32.9922 46.9102 32.2861 46.4062 31.3721C45.9023 30.458 45.6504 29.4092 45.6504 28.2256C45.6504 27.0479 45.8994 26.0049 46.3975 25.0967C46.8955 24.1826 47.5928 23.4766 48.4893 22.9785C49.3916 22.4805 50.4258 22.2314 51.5918 22.2314C52.5527 22.2314 53.4316 22.3955 54.2285 22.7236C55.0254 23.0518 55.6846 23.5264 56.2061 24.1475C56.7275 24.7627 57.0615 25.4775 57.208 26.292H54.8613C54.6797 25.6709 54.293 25.1641 53.7012 24.7715C53.1094 24.373 52.4004 24.1738 51.5742 24.1738C50.8301 24.1738 50.1738 24.3408 49.6055 24.6748C49.043 25.0088 48.6094 25.4863 48.3047 26.1074C48 26.7227 47.8477 27.4346 47.8477 28.2432C47.8477 29.0576 48.0029 29.7725 48.3135 30.3877C48.624 30.9971 49.0605 31.4629 49.623 31.7852C50.1914 32.1074 50.8418 32.2686 51.5742 32.2686C52.377 32.2686 53.0771 32.0752 53.6748 31.6885C54.2783 31.2959 54.6738 30.7773 54.8613 30.1328H57.208C57.0732 30.9355 56.748 31.6504 56.2324 32.2773C55.7168 32.8984 55.0605 33.3818 54.2637 33.7275C53.4668 34.0674 52.5762 34.2373 51.5918 34.2373ZM58.1836 29.9834C58.1836 29.1689 58.3682 28.4395 58.7373 27.7949C59.1123 27.1445 59.6309 26.6377 60.293 26.2744C60.9609 25.9053 61.7197 25.7207 62.5693 25.7207C63.4189 25.7207 64.1777 25.9053 64.8457 26.2744C65.5137 26.6377 66.0322 27.1445 66.4014 27.7949C66.7764 28.4395 66.9639 29.1689 66.9639 29.9834C66.9639 30.7861 66.7764 31.5127 66.4014 32.1631C66.0322 32.8135 65.5137 33.3232 64.8457 33.6924C64.1836 34.0557 63.4248 34.2373 62.5693 34.2373C61.7197 34.2373 60.9609 34.0557 60.293 33.6924C59.6309 33.3232 59.1123 32.8164 58.7373 32.1719C58.3682 31.5215 58.1836 30.792 58.1836 29.9834ZM60.249 29.9658C60.249 30.6865 60.4658 31.2783 60.8994 31.7412C61.333 32.2041 61.8896 32.4355 62.5693 32.4355C63.2666 32.4355 63.832 32.2041 64.2656 31.7412C64.6992 31.2783 64.916 30.6865 64.916 29.9658C64.916 29.2451 64.6992 28.6562 64.2656 28.1992C63.832 27.7363 63.2666 27.5049 62.5693 27.5049C61.8838 27.5049 61.3242 27.7363 60.8906 28.1992C60.4629 28.6562 60.249 29.2451 60.249 29.9658ZM73.0811 25.7207C74.0127 25.7207 74.748 26.0166 75.2871 26.6084C75.832 27.1943 76.1045 28.0029 76.1045 29.0342V34H74.083V29.5C74.083 28.1934 73.5498 27.54 72.4834 27.54C71.9092 27.54 71.4639 27.707 71.1475 28.041C70.8369 28.375 70.6816 28.8262 70.6816 29.3945V34H68.6865V25.9756H70.3564L70.5059 26.9424C70.7578 26.5732 71.1152 26.2773 71.5781 26.0547C72.041 25.832 72.542 25.7207 73.0811 25.7207ZM82.5117 27.6279H80.9824V34H78.9697V27.6279H77.4404V25.9756H78.9697V23.8662H80.9824V25.9756H82.5117V27.6279ZM91.9951 25.9756V34H90.0703V32.8662C89.7949 33.2881 89.3994 33.6221 88.8838 33.8682C88.374 34.1143 87.8027 34.2373 87.1699 34.2373C86.4258 34.2373 85.7637 34.0645 85.1836 33.7188C84.6094 33.3672 84.1641 32.875 83.8477 32.2422C83.5312 31.6035 83.373 30.8623 83.373 30.0186C83.373 29.1689 83.54 28.4189 83.874 27.7686C84.208 27.1123 84.6738 26.6084 85.2715 26.2568C85.875 25.8994 86.5664 25.7207 87.3457 25.7207C87.9551 25.7207 88.5029 25.832 88.9893 26.0547C89.4814 26.2773 89.8711 26.5908 90.1582 26.9951L90.3164 25.9756H91.9951ZM87.6709 32.418C88.3447 32.418 88.8926 32.1895 89.3145 31.7324C89.7422 31.2754 89.9561 30.6807 89.9561 29.9482C89.9561 29.2158 89.748 28.6299 89.332 28.1904C88.9219 27.7451 88.374 27.5225 87.6885 27.5225C87.0029 27.5225 86.4521 27.748 86.0361 28.1992C85.626 28.6445 85.4209 29.2334 85.4209 29.9658C85.4209 30.6982 85.6289 31.29 86.0449 31.7412C86.4609 32.1924 87.0029 32.418 87.6709 32.418ZM93.7266 29.9658C93.7266 29.1279 93.9023 28.3896 94.2539 27.751C94.6113 27.1064 95.1123 26.6084 95.7568 26.2568C96.4072 25.8994 97.1455 25.7207 97.9717 25.7207C99.0732 25.7207 99.9902 26.0107 100.723 26.5908C101.455 27.165 101.877 27.9355 101.988 28.9023H99.9316C99.8145 28.4453 99.5801 28.0967 99.2285 27.8564C98.8828 27.6104 98.458 27.4873 97.9541 27.4873C97.292 27.4873 96.7588 27.7129 96.3545 28.1641C95.9561 28.6094 95.7568 29.2158 95.7568 29.9834C95.7568 30.7275 95.9502 31.3252 96.3369 31.7764C96.7295 32.2275 97.2627 32.4531 97.9365 32.4531C98.4639 32.4531 98.9033 32.3242 99.2549 32.0664C99.6123 31.8086 99.8379 31.4746 99.9316 31.0645H101.988C101.871 32.0137 101.443 32.7812 100.705 33.3672C99.9727 33.9473 99.0674 34.2373 97.9893 34.2373C97.1514 34.2373 96.4072 34.0615 95.7568 33.71C95.1123 33.3525 94.6113 32.8516 94.2539 32.207C93.9023 31.5566 93.7266 30.8096 93.7266 29.9658ZM108.035 27.6279H106.506V34H104.493V27.6279H102.964V25.9756H104.493V23.8662H106.506V25.9756H108.035V27.6279Z" fill="#FF383D"/>
</svg>
