<svg width="1445" height="144" viewBox="0 0 1445 144" fill="none" xmlns="http://www.w3.org/2000/svg">
<path d="M449.97 36.644C449.97 38.1115 449.633 39.4255 448.959 40.5859C448.293 41.7389 447.379 42.6449 446.219 43.3037C445.066 43.9551 443.778 44.2808 442.355 44.2808C440.933 44.2808 439.641 43.9588 438.481 43.3149C437.32 42.6711 436.407 41.7689 435.741 40.6084C435.074 39.4479 434.741 38.1265 434.741 36.644C434.741 35.1691 435.074 33.8514 435.741 32.6909C436.407 31.5229 437.317 30.6095 438.47 29.9507C439.63 29.2918 440.925 28.9624 442.355 28.9624C443.778 28.9624 445.066 29.2881 446.219 29.9395C447.379 30.5908 448.293 31.5042 448.959 32.6797C449.633 33.8477 449.97 35.1691 449.97 36.644ZM447.87 36.644C447.87 35.521 447.626 34.5252 447.14 33.6567C446.66 32.7808 446.002 32.0994 445.163 31.6128C444.332 31.1187 443.404 30.8716 442.378 30.8716C441.337 30.8716 440.394 31.1187 439.548 31.6128C438.702 32.0994 438.035 32.7808 437.549 33.6567C437.07 34.5252 436.83 35.521 436.83 36.644C436.83 37.7671 437.07 38.7666 437.549 39.6426C438.035 40.5111 438.702 41.1924 439.548 41.6865C440.394 42.1732 441.33 42.4165 442.355 42.4165C443.381 42.4165 444.313 42.1732 445.152 41.6865C445.998 41.1924 446.66 40.5073 447.14 39.6313C447.626 38.7554 447.87 37.7596 447.87 36.644ZM453.26 33.8589L454.451 37.0596C454.818 38.0404 455.181 39.0174 455.54 39.9907C455.907 40.964 456.15 41.6266 456.27 41.9785C456.405 41.6117 456.656 40.9416 457.022 39.9683C457.397 38.995 457.775 38.0254 458.157 37.0596L459.426 33.8589H461.425L457.191 44H455.282L451.194 33.8589H453.26ZM472.217 40.9678C471.985 41.9635 471.424 42.7646 470.533 43.3711C469.642 43.9775 468.601 44.2808 467.411 44.2808C466.385 44.2808 465.479 44.0562 464.693 43.6069C463.914 43.1502 463.308 42.5176 462.874 41.709C462.447 40.8929 462.233 39.9533 462.233 38.8901C462.233 37.8345 462.451 36.9023 462.885 36.0938C463.326 35.2777 463.933 34.6525 464.704 34.2183C465.483 33.7765 466.362 33.5557 467.343 33.5557C468.309 33.5557 469.155 33.7616 469.881 34.1733C470.608 34.5776 471.173 35.1429 471.577 35.8691C471.989 36.5954 472.195 37.4264 472.195 38.3623C472.195 38.8714 472.165 39.257 472.105 39.519H464.12C464.15 40.4849 464.468 41.2598 465.075 41.8438C465.681 42.4202 466.46 42.7085 467.411 42.7085C468.114 42.7085 468.728 42.5513 469.252 42.2368C469.784 41.9224 470.151 41.4993 470.353 40.9678H472.217ZM470.263 38.1377C470.248 37.2318 469.971 36.513 469.432 35.9814C468.893 35.4424 468.189 35.1729 467.321 35.1729C466.4 35.1729 465.647 35.4424 465.063 35.9814C464.479 36.513 464.173 37.2318 464.143 38.1377H470.263ZM479.158 33.769C479.495 33.769 479.817 33.799 480.124 33.8589V35.4873C479.951 35.4574 479.712 35.4424 479.405 35.4424C478.484 35.4424 477.773 35.7157 477.271 36.2622C476.777 36.8088 476.53 37.5649 476.53 38.5308V44H474.621V33.8589H476.305L476.53 35.3975C476.702 34.8734 477.024 34.4728 477.496 34.1958C477.975 33.9113 478.529 33.769 479.158 33.769ZM483.201 33.8589L484.391 37.0596C484.758 38.0404 485.121 39.0174 485.48 39.9907C485.847 40.964 486.091 41.6266 486.21 41.9785C486.345 41.6117 486.596 40.9416 486.963 39.9683C487.337 38.995 487.715 38.0254 488.097 37.0596L489.366 33.8589H491.365L487.131 44H485.222L481.134 33.8589H483.201ZM494.251 31.377C493.855 31.377 493.521 31.2422 493.252 30.9727C492.982 30.7031 492.848 30.37 492.848 29.9731C492.848 29.5913 492.982 29.2694 493.252 29.0073C493.521 28.7453 493.855 28.6143 494.251 28.6143C494.663 28.6143 495 28.7453 495.262 29.0073C495.524 29.2694 495.655 29.5913 495.655 29.9731C495.655 30.355 495.524 30.6844 495.262 30.9614C495.008 31.2384 494.671 31.377 494.251 31.377ZM493.308 33.8589H495.217V44H493.308V33.8589ZM507.75 40.9678C507.518 41.9635 506.957 42.7646 506.066 43.3711C505.175 43.9775 504.134 44.2808 502.944 44.2808C501.918 44.2808 501.012 44.0562 500.226 43.6069C499.447 43.1502 498.841 42.5176 498.407 41.709C497.98 40.8929 497.767 39.9533 497.767 38.8901C497.767 37.8345 497.984 36.9023 498.418 36.0938C498.86 35.2777 499.466 34.6525 500.237 34.2183C501.016 33.7765 501.896 33.5557 502.876 33.5557C503.842 33.5557 504.688 33.7616 505.415 34.1733C506.141 34.5776 506.706 35.1429 507.11 35.8691C507.522 36.5954 507.728 37.4264 507.728 38.3623C507.728 38.8714 507.698 39.257 507.638 39.519H499.653C499.683 40.4849 500.001 41.2598 500.608 41.8438C501.214 42.4202 501.993 42.7085 502.944 42.7085C503.648 42.7085 504.262 42.5513 504.786 42.2368C505.317 41.9224 505.684 41.4993 505.886 40.9678H507.75ZM505.796 38.1377C505.781 37.2318 505.504 36.513 504.965 35.9814C504.426 35.4424 503.722 35.1729 502.854 35.1729C501.933 35.1729 501.181 35.4424 500.597 35.9814C500.013 36.513 499.706 37.2318 499.676 38.1377H505.796ZM510.715 33.8589L511.771 37.2393C512.43 39.3057 512.853 40.7244 513.04 41.4956C513.287 40.6496 513.983 38.4259 515.129 34.8247L515.387 34.0386H517.386C517.603 34.6825 517.97 35.8467 518.487 37.5312C519.011 39.2083 519.419 40.5522 519.711 41.563C520.003 40.425 520.392 39.1073 520.879 37.6099L522.103 33.8589H524.102L520.632 44H518.745C518.056 41.8962 517.506 40.1667 517.094 38.8115C516.69 37.4564 516.458 36.6403 516.398 36.3633C515.971 37.8831 515.174 40.4287 514.006 44H512.074L508.671 33.8589H510.715ZM585.993 33.2861C585.993 31.9834 586.454 30.939 587.375 30.1528C588.295 29.3592 589.508 28.9624 591.013 28.9624C591.994 28.9624 592.862 29.1383 593.619 29.4902C594.382 29.8421 594.974 30.3363 595.393 30.9727C595.812 31.609 596.022 32.339 596.022 33.1626H593.978C593.963 32.4139 593.679 31.8149 593.125 31.3657C592.578 30.909 591.852 30.6807 590.946 30.6807C590.07 30.6807 589.37 30.9015 588.846 31.3433C588.329 31.7775 588.071 32.3465 588.071 33.0503C588.071 33.769 588.292 34.2856 588.733 34.6001C589.183 34.9146 589.752 35.1579 590.44 35.3301L592.922 35.9927C593.858 36.2248 594.671 36.659 595.359 37.2954C596.048 37.9318 596.393 38.819 596.393 39.957C596.393 41.2747 595.91 42.3267 594.944 43.1128C593.978 43.8914 592.69 44.2808 591.081 44.2808C589.531 44.2808 588.265 43.9064 587.285 43.1577C586.304 42.4015 585.769 41.3646 585.679 40.0469H587.768C587.783 40.8405 588.104 41.4657 588.733 41.9224C589.362 42.3716 590.167 42.5962 591.148 42.5962C592.129 42.5962 592.904 42.3753 593.473 41.9336C594.042 41.4844 594.326 40.8854 594.326 40.1367C594.326 39.4479 594.117 38.9425 593.697 38.6206C593.285 38.2987 592.765 38.0441 592.136 37.8569L589.632 37.2168C588.591 36.9548 587.723 36.5093 587.026 35.8804C586.338 35.2515 585.993 34.3867 585.993 33.2861ZM607.421 33.8589L602.783 45.9766C602.416 46.8825 601.955 47.5638 601.401 48.0205C600.847 48.4847 600.087 48.7168 599.122 48.7168C598.612 48.7168 598.085 48.6382 597.538 48.481V46.9199C597.598 46.9349 597.748 46.9648 597.987 47.0098C598.234 47.0547 598.511 47.0771 598.818 47.0771C599.477 47.0771 599.96 46.9461 600.267 46.6841C600.574 46.4295 600.829 46.0327 601.031 45.4937L601.401 44.5278L597.055 33.8589H599.099L602.3 42.1357L605.399 33.8589H607.421ZM620.684 33.5557C621.755 33.5557 622.623 33.8813 623.29 34.5327C623.963 35.1841 624.3 36.1087 624.3 37.3066V44.0225H622.414V37.7222C622.414 36.8761 622.215 36.2472 621.818 35.8354C621.429 35.4237 620.89 35.2178 620.201 35.2178C619.452 35.2178 618.857 35.4723 618.416 35.9814C617.981 36.4831 617.764 37.0933 617.764 37.812V44.0225H615.877V37.7222C615.877 36.9435 615.679 36.3333 615.282 35.8916C614.885 35.4424 614.331 35.2178 613.62 35.2178C612.901 35.2178 612.321 35.4723 611.879 35.9814C611.445 36.4831 611.228 37.0858 611.228 37.7896V44.0225H609.319V33.8589H611.026L611.161 35.1504C611.453 34.6562 611.861 34.2669 612.385 33.9824C612.916 33.6979 613.497 33.5557 614.125 33.5557C614.889 33.5557 615.563 33.7428 616.147 34.1172C616.731 34.484 617.146 34.9782 617.394 35.5996C617.671 34.9557 618.101 34.4541 618.685 34.0947C619.269 33.7354 619.935 33.5557 620.684 33.5557ZM633.015 33.5557C633.966 33.5557 634.808 33.7803 635.542 34.2295C636.283 34.6712 636.863 35.3039 637.283 36.1274C637.702 36.9435 637.912 37.8794 637.912 38.9351C637.912 39.9757 637.702 40.9041 637.283 41.7202C636.863 42.5363 636.279 43.1689 635.531 43.6182C634.79 44.0599 633.944 44.2808 632.993 44.2808C632.162 44.2808 631.42 44.1235 630.769 43.8091C630.118 43.4946 629.616 43.0529 629.264 42.4839V48.5259H627.4V33.8589H628.972L629.129 35.6558C629.466 35.0269 629.983 34.5215 630.679 34.1396C631.375 33.7503 632.154 33.5557 633.015 33.5557ZM632.667 42.5737C633.663 42.5737 634.464 42.2368 635.07 41.563C635.677 40.8892 635.98 40.0132 635.98 38.9351C635.98 37.8345 635.677 36.9548 635.07 36.2959C634.464 35.637 633.67 35.3076 632.689 35.3076C631.694 35.3076 630.896 35.6408 630.297 36.3071C629.706 36.9735 629.41 37.8682 629.41 38.9912C629.41 40.0918 629.706 40.964 630.297 41.6079C630.896 42.2518 631.686 42.5737 632.667 42.5737ZM645.167 35.4424H643.167V44H641.258V35.4424H639.282V33.8589H641.258V31.1636H643.167V33.8589H645.167V35.4424ZM646.436 38.9351C646.436 37.9243 646.664 37.0146 647.121 36.2061C647.585 35.39 648.229 34.7461 649.052 34.2744C649.883 33.7952 650.827 33.5557 651.882 33.5557C652.938 33.5557 653.885 33.7952 654.724 34.2744C655.562 34.7461 656.21 35.39 656.667 36.2061C657.131 37.0146 657.363 37.9243 657.363 38.9351C657.363 39.9308 657.127 40.8368 656.655 41.6528C656.191 42.4689 655.543 43.1128 654.712 43.5845C653.889 44.0487 652.945 44.2808 651.882 44.2808C650.842 44.2808 649.906 44.0487 649.075 43.5845C648.251 43.1128 647.604 42.4727 647.132 41.6641C646.668 40.848 646.436 39.9383 646.436 38.9351ZM648.412 38.9351C648.412 39.9832 648.738 40.8517 649.389 41.5405C650.041 42.2293 650.872 42.5737 651.882 42.5737C652.923 42.5737 653.769 42.2293 654.42 41.5405C655.079 40.8517 655.409 39.9832 655.409 38.9351C655.409 37.8794 655.083 37.0034 654.432 36.3071C653.78 35.6108 652.931 35.2627 651.882 35.2627C650.872 35.2627 650.041 35.6108 649.389 36.3071C648.738 37.0034 648.412 37.8794 648.412 38.9351ZM671.176 33.5557C672.247 33.5557 673.115 33.8813 673.782 34.5327C674.456 35.1841 674.792 36.1087 674.792 37.3066V44.0225H672.906V37.7222C672.906 36.8761 672.707 36.2472 672.311 35.8354C671.921 35.4237 671.382 35.2178 670.693 35.2178C669.945 35.2178 669.349 35.4723 668.908 35.9814C668.473 36.4831 668.256 37.0933 668.256 37.812V44.0225H666.37V37.7222C666.37 36.9435 666.171 36.3333 665.774 35.8916C665.378 35.4424 664.824 35.2178 664.112 35.2178C663.394 35.2178 662.813 35.4723 662.372 35.9814C661.937 36.4831 661.72 37.0858 661.72 37.7896V44.0225H659.811V33.8589H661.518L661.653 35.1504C661.945 34.6562 662.353 34.2669 662.877 33.9824C663.409 33.6979 663.989 33.5557 664.618 33.5557C665.381 33.5557 666.055 33.7428 666.639 34.1172C667.223 34.484 667.639 34.9782 667.886 35.5996C668.163 34.9557 668.593 34.4541 669.177 34.0947C669.761 33.7354 670.428 33.5557 671.176 33.5557ZM681.306 44.2808C680.123 44.2808 679.15 43.9963 678.386 43.4272C677.63 42.8582 677.222 42.1058 677.162 41.1699H679.026C679.071 41.694 679.296 42.0983 679.7 42.3828C680.104 42.6673 680.64 42.8096 681.306 42.8096C681.965 42.8096 682.478 42.6785 682.845 42.4165C683.212 42.1545 683.395 41.7839 683.395 41.3047C683.395 40.833 683.249 40.4961 682.957 40.2939C682.665 40.0843 682.291 39.9308 681.834 39.8335L680.037 39.418C679.146 39.2158 678.487 38.8752 678.061 38.396C677.641 37.9168 677.432 37.3328 677.432 36.644C677.432 35.7082 677.784 34.9595 678.487 34.3979C679.199 33.8364 680.119 33.5557 681.25 33.5557C682.403 33.5557 683.335 33.8439 684.046 34.4204C684.765 34.9969 685.139 35.7606 685.169 36.7114H683.305C683.29 36.1873 683.088 35.7756 682.699 35.4761C682.317 35.1766 681.826 35.0269 681.228 35.0269C680.659 35.0269 680.206 35.1541 679.869 35.4087C679.539 35.6632 679.375 36.0189 679.375 36.4756C679.375 36.9023 679.506 37.2131 679.768 37.4077C680.037 37.6024 680.389 37.7446 680.823 37.8345L682.867 38.2949C683.713 38.4821 684.342 38.8265 684.754 39.3281C685.166 39.8223 685.372 40.4212 685.372 41.125C685.372 42.0908 685.001 42.8582 684.26 43.4272C683.526 43.9963 682.542 44.2808 681.306 44.2808ZM754.136 29.2544C755.603 29.2544 756.767 29.6849 757.628 30.5459C758.489 31.4069 758.92 32.5562 758.92 33.9937C758.92 34.8996 758.722 35.7119 758.325 36.4307C757.935 37.1494 757.378 37.7147 756.651 38.1265C755.925 38.5308 755.072 38.7329 754.091 38.7329H750.317V44H748.318V29.2544H754.136ZM753.743 36.981C754.723 36.981 755.483 36.6965 756.022 36.1274C756.569 35.5509 756.842 34.8172 756.842 33.9263C756.842 33.0802 756.576 32.3914 756.045 31.8599C755.521 31.3208 754.783 31.0513 753.833 31.0513H750.317V36.981H753.743ZM765.49 33.769C765.827 33.769 766.149 33.799 766.456 33.8589V35.4873C766.283 35.4574 766.044 35.4424 765.737 35.4424C764.816 35.4424 764.105 35.7157 763.603 36.2622C763.109 36.8088 762.862 37.5649 762.862 38.5308V44H760.953V33.8589H762.637L762.862 35.3975C763.034 34.8734 763.356 34.4728 763.828 34.1958C764.307 33.9113 764.861 33.769 765.49 33.769ZM777.619 40.9678C777.387 41.9635 776.825 42.7646 775.934 43.3711C775.043 43.9775 774.002 44.2808 772.812 44.2808C771.786 44.2808 770.88 44.0562 770.094 43.6069C769.316 43.1502 768.709 42.5176 768.275 41.709C767.848 40.8929 767.635 39.9533 767.635 38.8901C767.635 37.8345 767.852 36.9023 768.286 36.0938C768.728 35.2777 769.334 34.6525 770.105 34.2183C770.884 33.7765 771.764 33.5557 772.745 33.5557C773.71 33.5557 774.556 33.7616 775.283 34.1733C776.009 34.5776 776.574 35.1429 776.979 35.8691C777.39 36.5954 777.596 37.4264 777.596 38.3623C777.596 38.8714 777.566 39.257 777.506 39.519H769.521C769.551 40.4849 769.87 41.2598 770.476 41.8438C771.083 42.4202 771.861 42.7085 772.812 42.7085C773.516 42.7085 774.13 42.5513 774.654 42.2368C775.185 41.9224 775.552 41.4993 775.754 40.9678H777.619ZM775.665 38.1377C775.65 37.2318 775.373 36.513 774.833 35.9814C774.294 35.4424 773.591 35.1729 772.722 35.1729C771.801 35.1729 771.049 35.4424 770.465 35.9814C769.881 36.513 769.574 37.2318 769.544 38.1377H775.665ZM780.426 33.8589L781.617 37.0596C781.984 38.0404 782.347 39.0174 782.706 39.9907C783.073 40.964 783.316 41.6266 783.436 41.9785C783.571 41.6117 783.822 40.9416 784.188 39.9683C784.563 38.995 784.941 38.0254 785.323 37.0596L786.592 33.8589H788.591L784.357 44H782.448L778.36 33.8589H780.426ZM799.383 40.9678C799.151 41.9635 798.59 42.7646 797.699 43.3711C796.808 43.9775 795.767 44.2808 794.577 44.2808C793.551 44.2808 792.645 44.0562 791.859 43.6069C791.08 43.1502 790.474 42.5176 790.04 41.709C789.613 40.8929 789.399 39.9533 789.399 38.8901C789.399 37.8345 789.617 36.9023 790.051 36.0938C790.493 35.2777 791.099 34.6525 791.87 34.2183C792.649 33.7765 793.528 33.5557 794.509 33.5557C795.475 33.5557 796.321 33.7616 797.047 34.1733C797.774 34.5776 798.339 35.1429 798.743 35.8691C799.155 36.5954 799.361 37.4264 799.361 38.3623C799.361 38.8714 799.331 39.257 799.271 39.519H791.286C791.316 40.4849 791.634 41.2598 792.241 41.8438C792.847 42.4202 793.626 42.7085 794.577 42.7085C795.28 42.7085 795.894 42.5513 796.418 42.2368C796.95 41.9224 797.317 41.4993 797.519 40.9678H799.383ZM797.429 38.1377C797.414 37.2318 797.137 36.513 796.598 35.9814C796.059 35.4424 795.355 35.1729 794.487 35.1729C793.566 35.1729 792.813 35.4424 792.229 35.9814C791.646 36.513 791.339 37.2318 791.309 38.1377H797.429ZM806.896 33.5557C808.049 33.5557 808.97 33.9225 809.659 34.6562C810.348 35.3825 810.692 36.4045 810.692 37.7222V44H808.761V38.1602C808.761 36.2435 807.986 35.2852 806.436 35.2852C805.59 35.2852 804.92 35.5397 804.426 36.0488C803.939 36.5505 803.696 37.1981 803.696 37.9917V43.9775H801.787V33.8589H803.381L803.561 35.2852C803.868 34.7611 804.325 34.3418 804.931 34.0273C805.538 33.7129 806.193 33.5557 806.896 33.5557ZM821.698 28.5693C822.11 28.5693 822.447 28.7004 822.709 28.9624C822.971 29.217 823.102 29.5389 823.102 29.9282C823.102 30.325 822.971 30.6582 822.709 30.9277C822.447 31.1973 822.11 31.332 821.698 31.332C821.286 31.332 820.946 31.1973 820.676 30.9277C820.407 30.6582 820.272 30.325 820.272 29.9282C820.272 29.5464 820.407 29.2244 820.676 28.9624C820.946 28.7004 821.286 28.5693 821.698 28.5693ZM816.611 33.8589H822.642V44H820.732V35.4424H816.611V44H814.679V35.4424H812.703V33.8589H814.679V31.1636H816.611V33.8589ZM825.225 38.9351C825.225 37.9243 825.453 37.0146 825.91 36.2061C826.374 35.39 827.018 34.7461 827.841 34.2744C828.672 33.7952 829.616 33.5557 830.671 33.5557C831.727 33.5557 832.674 33.7952 833.513 34.2744C834.351 34.7461 834.999 35.39 835.456 36.2061C835.92 37.0146 836.152 37.9243 836.152 38.9351C836.152 39.9308 835.916 40.8368 835.444 41.6528C834.98 42.4689 834.333 43.1128 833.501 43.5845C832.678 44.0487 831.735 44.2808 830.671 44.2808C829.631 44.2808 828.695 44.0487 827.864 43.5845C827.04 43.1128 826.393 42.4727 825.921 41.6641C825.457 40.848 825.225 39.9383 825.225 38.9351ZM827.201 38.9351C827.201 39.9832 827.527 40.8517 828.178 41.5405C828.83 42.2293 829.661 42.5737 830.671 42.5737C831.712 42.5737 832.558 42.2293 833.209 41.5405C833.868 40.8517 834.198 39.9832 834.198 38.9351C834.198 37.8794 833.872 37.0034 833.221 36.3071C832.569 35.6108 831.72 35.2627 830.671 35.2627C829.661 35.2627 828.83 35.6108 828.178 36.3071C827.527 37.0034 827.201 37.8794 827.201 38.9351ZM843.71 33.5557C844.863 33.5557 845.784 33.9225 846.473 34.6562C847.161 35.3825 847.506 36.4045 847.506 37.7222V44H845.574V38.1602C845.574 36.2435 844.799 35.2852 843.25 35.2852C842.403 35.2852 841.733 35.5397 841.239 36.0488C840.753 36.5505 840.509 37.1981 840.509 37.9917V43.9775H838.6V33.8589H840.195L840.375 35.2852C840.681 34.7611 841.138 34.3418 841.745 34.0273C842.351 33.7129 843.006 33.5557 843.71 33.5557ZM920.706 31.0962H916.169V44H914.17V31.0962H909.599V29.2544H920.706V31.0962ZM925.816 33.769C926.153 33.769 926.475 33.799 926.782 33.8589V35.4873C926.61 35.4574 926.37 35.4424 926.063 35.4424C925.142 35.4424 924.431 35.7157 923.929 36.2622C923.435 36.8088 923.188 37.5649 923.188 38.5308V44H921.279V33.8589H922.963L923.188 35.3975C923.36 34.8734 923.682 34.4728 924.154 34.1958C924.633 33.9113 925.187 33.769 925.816 33.769ZM937.945 40.9678C937.713 41.9635 937.151 42.7646 936.26 43.3711C935.369 43.9775 934.329 44.2808 933.138 44.2808C932.112 44.2808 931.207 44.0562 930.42 43.6069C929.642 43.1502 929.035 42.5176 928.601 41.709C928.174 40.8929 927.961 39.9533 927.961 38.8901C927.961 37.8345 928.178 36.9023 928.612 36.0938C929.054 35.2777 929.66 34.6525 930.432 34.2183C931.21 33.7765 932.09 33.5557 933.071 33.5557C934.037 33.5557 934.883 33.7616 935.609 34.1733C936.335 34.5776 936.9 35.1429 937.305 35.8691C937.716 36.5954 937.922 37.4264 937.922 38.3623C937.922 38.8714 937.892 39.257 937.833 39.519H929.848C929.878 40.4849 930.196 41.2598 930.802 41.8438C931.409 42.4202 932.187 42.7085 933.138 42.7085C933.842 42.7085 934.456 42.5513 934.98 42.2368C935.512 41.9224 935.878 41.4993 936.081 40.9678H937.945ZM935.991 38.1377C935.976 37.2318 935.699 36.513 935.16 35.9814C934.621 35.4424 933.917 35.1729 933.048 35.1729C932.127 35.1729 931.375 35.4424 930.791 35.9814C930.207 36.513 929.9 37.2318 929.87 38.1377H935.991ZM950.175 33.8589V44H948.378V42.2031C948.041 42.832 947.524 43.3374 946.828 43.7192C946.132 44.0936 945.346 44.2808 944.47 44.2808C943.534 44.2808 942.699 44.0599 941.965 43.6182C941.239 43.1689 940.674 42.5438 940.27 41.7427C939.865 40.9341 939.663 40.0057 939.663 38.9575C939.663 37.8869 939.873 36.9435 940.292 36.1274C940.719 35.3039 941.303 34.6712 942.044 34.2295C942.785 33.7803 943.639 33.5557 944.604 33.5557C945.465 33.5557 946.225 33.7279 946.884 34.0723C947.543 34.4167 948.056 34.8883 948.423 35.4873L948.591 33.8589H950.175ZM944.885 42.5513C945.881 42.5513 946.686 42.2181 947.3 41.5518C947.914 40.8854 948.221 39.9907 948.221 38.8677C948.221 37.7821 947.917 36.9136 947.311 36.2622C946.705 35.6108 945.911 35.2852 944.93 35.2852C943.919 35.2852 943.115 35.6183 942.516 36.2847C941.917 36.951 941.617 37.827 941.617 38.9126C941.617 39.9982 941.917 40.8779 942.516 41.5518C943.115 42.2181 943.904 42.5513 944.885 42.5513ZM958.137 35.4424H956.138V44H954.229V35.4424H952.252V33.8589H954.229V31.1636H956.138V33.8589H958.137V35.4424ZM971.479 33.5557C972.55 33.5557 973.418 33.8813 974.084 34.5327C974.758 35.1841 975.095 36.1087 975.095 37.3066V44.0225H973.208V37.7222C973.208 36.8761 973.01 36.2472 972.613 35.8354C972.224 35.4237 971.685 35.2178 970.996 35.2178C970.247 35.2178 969.652 35.4723 969.21 35.9814C968.776 36.4831 968.559 37.0933 968.559 37.812V44.0225H966.672V37.7222C966.672 36.9435 966.474 36.3333 966.077 35.8916C965.68 35.4424 965.126 35.2178 964.415 35.2178C963.696 35.2178 963.116 35.4723 962.674 35.9814C962.24 36.4831 962.023 37.0858 962.023 37.7896V44.0225H960.114V33.8589H961.821L961.956 35.1504C962.248 34.6562 962.656 34.2669 963.18 33.9824C963.711 33.6979 964.292 33.5557 964.92 33.5557C965.684 33.5557 966.358 33.7428 966.942 34.1172C967.526 34.484 967.941 34.9782 968.188 35.5996C968.465 34.9557 968.896 34.4541 969.48 34.0947C970.064 33.7354 970.73 33.5557 971.479 33.5557ZM987.494 40.9678C987.262 41.9635 986.7 42.7646 985.809 43.3711C984.918 43.9775 983.877 44.2808 982.687 44.2808C981.661 44.2808 980.755 44.0562 979.969 43.6069C979.191 43.1502 978.584 42.5176 978.15 41.709C977.723 40.8929 977.51 39.9533 977.51 38.8901C977.51 37.8345 977.727 36.9023 978.161 36.0938C978.603 35.2777 979.209 34.6525 979.98 34.2183C980.759 33.7765 981.639 33.5557 982.62 33.5557C983.585 33.5557 984.431 33.7616 985.158 34.1733C985.884 34.5776 986.449 35.1429 986.854 35.8691C987.265 36.5954 987.471 37.4264 987.471 38.3623C987.471 38.8714 987.441 39.257 987.381 39.519H979.396C979.426 40.4849 979.745 41.2598 980.351 41.8438C980.958 42.4202 981.736 42.7085 982.687 42.7085C983.391 42.7085 984.005 42.5513 984.529 42.2368C985.06 41.9224 985.427 41.4993 985.629 40.9678H987.494ZM985.54 38.1377C985.525 37.2318 985.248 36.513 984.708 35.9814C984.169 35.4424 983.466 35.1729 982.597 35.1729C981.676 35.1729 980.924 35.4424 980.34 35.9814C979.756 36.513 979.449 37.2318 979.419 38.1377H985.54ZM995.007 33.5557C996.16 33.5557 997.081 33.9225 997.77 34.6562C998.458 35.3825 998.803 36.4045 998.803 37.7222V44H996.871V38.1602C996.871 36.2435 996.096 35.2852 994.546 35.2852C993.7 35.2852 993.03 35.5397 992.536 36.0488C992.049 36.5505 991.806 37.1981 991.806 37.9917V43.9775H989.897V33.8589H991.492L991.671 35.2852C991.978 34.7611 992.435 34.3418 993.042 34.0273C993.648 33.7129 994.303 33.5557 995.007 33.5557ZM1006.7 35.4424H1004.7V44H1002.79V35.4424H1000.81V33.8589H1002.79V31.1636H1004.7V33.8589H1006.7V35.4424Z" fill="#00402E"/>
<path d="M514.279 137.181H520.265V139H511.359V137.551L516.581 131.734C517.12 131.135 517.547 130.566 517.861 130.027C518.176 129.48 518.333 128.893 518.333 128.264C518.333 127.53 518.086 126.931 517.592 126.467C517.105 126.003 516.461 125.771 515.66 125.771C514.799 125.771 514.11 126.029 513.594 126.545C513.085 127.062 512.83 127.71 512.83 128.488L512.853 128.814H510.943L510.921 128.398C510.921 127.537 511.127 126.774 511.539 126.107C511.958 125.441 512.534 124.921 513.268 124.546C514.002 124.172 514.829 123.985 515.75 123.985C516.641 123.985 517.431 124.161 518.12 124.513C518.808 124.865 519.34 125.359 519.714 125.995C520.096 126.632 520.287 127.354 520.287 128.163C520.287 129.069 520.081 129.881 519.669 130.6C519.265 131.311 518.749 132.026 518.12 132.745L514.279 137.181ZM527.879 139.225C526.172 139.225 524.847 138.555 523.903 137.214C522.96 135.874 522.488 134.017 522.488 131.644C522.488 129.256 522.96 127.384 523.903 126.029C524.847 124.666 526.172 123.985 527.879 123.985C529.593 123.985 530.922 124.662 531.866 126.018C532.809 127.373 533.281 129.248 533.281 131.644C533.281 134.017 532.805 135.874 531.854 137.214C530.904 138.555 529.578 139.225 527.879 139.225ZM527.879 137.484C528.994 137.484 529.837 136.975 530.406 135.957C530.975 134.931 531.259 133.493 531.259 131.644C531.259 129.772 530.975 128.327 530.406 127.309C529.837 126.283 528.994 125.771 527.879 125.771C526.778 125.771 525.94 126.28 525.363 127.298C524.787 128.309 524.499 129.757 524.499 131.644C524.499 133.501 524.783 134.938 525.352 135.957C525.929 136.975 526.771 137.484 527.879 137.484ZM538.806 137.181H544.792V139H535.886V137.551L541.108 131.734C541.647 131.135 542.074 130.566 542.389 130.027C542.703 129.48 542.86 128.893 542.86 128.264C542.86 127.53 542.613 126.931 542.119 126.467C541.632 126.003 540.989 125.771 540.188 125.771C539.326 125.771 538.638 126.029 538.121 126.545C537.612 127.062 537.357 127.71 537.357 128.488L537.38 128.814H535.471L535.448 128.398C535.448 127.537 535.654 126.774 536.066 126.107C536.485 125.441 537.062 124.921 537.795 124.546C538.529 124.172 539.356 123.985 540.277 123.985C541.168 123.985 541.958 124.161 542.647 124.513C543.336 124.865 543.867 125.359 544.242 125.995C544.624 126.632 544.814 127.354 544.814 128.163C544.814 129.069 544.609 129.881 544.197 130.6C543.792 131.311 543.276 132.026 542.647 132.745L538.806 137.181ZM552.406 139.225C550.699 139.225 549.374 138.555 548.431 137.214C547.487 135.874 547.016 134.017 547.016 131.644C547.016 129.256 547.487 127.384 548.431 126.029C549.374 124.666 550.699 123.985 552.406 123.985C554.121 123.985 555.45 124.662 556.393 126.018C557.336 127.373 557.808 129.248 557.808 131.644C557.808 134.017 557.333 135.874 556.382 137.214C555.431 138.555 554.106 139.225 552.406 139.225ZM552.406 137.484C553.522 137.484 554.364 136.975 554.933 135.957C555.502 134.931 555.787 133.493 555.787 131.644C555.787 129.772 555.502 128.327 554.933 127.309C554.364 126.283 553.522 125.771 552.406 125.771C551.306 125.771 550.467 126.28 549.891 127.298C549.314 128.309 549.026 129.757 549.026 131.644C549.026 133.501 549.31 134.938 549.879 135.957C550.456 136.975 551.298 137.484 552.406 137.484ZM575.507 123.985C577.349 123.985 578.996 124.385 580.449 125.187C581.909 125.98 583.05 127.073 583.874 128.466C584.705 129.858 585.121 131.438 585.121 133.205C585.121 134.291 584.952 135.245 584.615 136.069C584.278 136.885 583.795 137.518 583.167 137.967C582.538 138.409 581.811 138.629 580.988 138.629C580.082 138.629 579.363 138.382 578.832 137.888C578.3 137.387 578.004 136.776 577.944 136.058C577.652 136.567 577.237 136.971 576.698 137.271C576.166 137.562 575.563 137.708 574.89 137.708C573.692 137.708 572.722 137.319 571.981 136.541C571.247 135.754 570.88 134.732 570.88 133.475C570.88 132.644 571.053 131.91 571.397 131.273C571.749 130.63 572.236 130.128 572.857 129.769C573.478 129.409 574.193 129.229 575.002 129.229C575.676 129.229 576.286 129.375 576.833 129.667C577.379 129.952 577.787 130.349 578.057 130.858L578.158 129.454H579.393V135.552C579.393 136.091 579.547 136.518 579.854 136.833C580.16 137.139 580.554 137.293 581.033 137.293C581.811 137.293 582.422 136.941 582.863 136.237C583.312 135.534 583.537 134.568 583.537 133.34C583.537 131.805 583.196 130.442 582.515 129.252C581.834 128.054 580.883 127.122 579.663 126.456C578.442 125.789 577.05 125.456 575.485 125.456C573.89 125.456 572.471 125.8 571.229 126.489C569.986 127.178 569.02 128.136 568.331 129.364C567.642 130.592 567.298 131.988 567.298 133.553C567.298 135.148 567.646 136.559 568.342 137.787C569.039 139.007 570.008 139.955 571.251 140.628C572.494 141.31 573.89 141.65 575.44 141.65C577.154 141.65 578.671 141.235 579.988 140.404L580.707 141.74C579.157 142.661 577.402 143.122 575.44 143.122C573.613 143.122 571.962 142.717 570.487 141.909C569.02 141.108 567.863 139.981 567.017 138.528C566.179 137.076 565.759 135.417 565.759 133.553C565.759 131.681 566.179 130.023 567.017 128.578C567.863 127.126 569.024 125.999 570.499 125.198C571.981 124.389 573.651 123.985 575.507 123.985ZM575.114 136.496C575.93 136.496 576.593 136.215 577.102 135.653C577.619 135.092 577.877 134.358 577.877 133.452C577.877 132.546 577.626 131.827 577.125 131.296C576.63 130.757 575.975 130.487 575.159 130.487C574.298 130.487 573.617 130.768 573.115 131.33C572.614 131.891 572.363 132.606 572.363 133.475C572.363 134.366 572.617 135.092 573.126 135.653C573.643 136.215 574.306 136.496 575.114 136.496ZM597.665 124.254H599.877L605.369 139H603.258L601.921 135.316H595.599L594.217 139H592.196L597.665 124.254ZM601.349 133.666L600.012 130.004C599.585 128.792 599.293 127.979 599.136 127.567L598.788 126.579C598.818 126.579 598.406 127.736 597.553 130.049L596.171 133.666H601.349ZM607.222 123.221H609.131V139H607.222V123.221ZM612.343 123.221H614.252V139H612.343V123.221ZM627.482 128.769C627.819 128.769 628.141 128.799 628.448 128.859V130.487C628.276 130.457 628.036 130.442 627.729 130.442C626.808 130.442 626.097 130.716 625.595 131.262C625.101 131.809 624.854 132.565 624.854 133.531V139H622.945V128.859H624.629L624.854 130.397C625.026 129.873 625.348 129.473 625.82 129.196C626.299 128.911 626.853 128.769 627.482 128.769ZM631.435 126.377C631.038 126.377 630.705 126.242 630.436 125.973C630.166 125.703 630.031 125.37 630.031 124.973C630.031 124.591 630.166 124.269 630.436 124.007C630.705 123.745 631.038 123.614 631.435 123.614C631.847 123.614 632.184 123.745 632.446 124.007C632.708 124.269 632.839 124.591 632.839 124.973C632.839 125.355 632.708 125.684 632.446 125.961C632.191 126.238 631.854 126.377 631.435 126.377ZM630.492 128.859H632.401V139H630.492V128.859ZM645.35 128.859V138.955C645.35 140.43 644.882 141.609 643.946 142.493C643.01 143.384 641.752 143.829 640.172 143.829C638.795 143.829 637.653 143.473 636.747 142.762C635.841 142.051 635.302 141.074 635.13 139.831H637.017C637.166 140.565 637.522 141.134 638.083 141.538C638.645 141.95 639.341 142.156 640.172 142.156C641.213 142.156 642.018 141.871 642.587 141.302C643.156 140.733 643.44 139.966 643.44 139V136.866C643.089 137.45 642.587 137.907 641.936 138.236C641.292 138.558 640.558 138.719 639.734 138.719C638.784 138.719 637.941 138.502 637.208 138.068C636.481 137.634 635.924 137.035 635.534 136.271C635.145 135.5 634.95 134.639 634.95 133.688C634.95 132.722 635.149 131.85 635.545 131.071C635.942 130.285 636.507 129.671 637.241 129.229C637.982 128.78 638.836 128.556 639.802 128.556C640.648 128.556 641.389 128.728 642.025 129.072C642.662 129.417 643.156 129.896 643.508 130.51L643.62 128.859H645.35ZM640.06 137.046C641.026 137.046 641.808 136.72 642.407 136.069C643.014 135.417 643.317 134.609 643.317 133.643C643.317 132.677 643.017 131.869 642.418 131.217C641.827 130.566 641.041 130.24 640.06 130.24C639.094 130.24 638.327 130.566 637.758 131.217C637.189 131.869 636.904 132.685 636.904 133.666C636.904 134.646 637.193 135.455 637.769 136.091C638.346 136.728 639.109 137.046 640.06 137.046ZM648.438 123.221H650.347V130.24C650.654 129.716 651.103 129.304 651.695 129.005C652.286 128.705 652.926 128.556 653.615 128.556C654.768 128.556 655.682 128.923 656.355 129.656C657.029 130.382 657.366 131.404 657.366 132.722V139H655.457V133.16C655.457 132.119 655.236 131.382 654.794 130.948C654.36 130.506 653.806 130.285 653.132 130.285C652.369 130.285 651.714 130.521 651.167 130.993C650.62 131.457 650.347 132.123 650.347 132.992V139H648.438V123.221ZM665.284 130.442H663.285V139H661.375V130.442H659.399V128.859H661.375V126.164H663.285V128.859H665.284V130.442ZM671.079 139.281C669.896 139.281 668.922 138.996 668.159 138.427C667.403 137.858 666.994 137.106 666.935 136.17H668.799C668.844 136.694 669.068 137.098 669.473 137.383C669.877 137.667 670.412 137.81 671.079 137.81C671.737 137.81 672.25 137.679 672.617 137.417C672.984 137.154 673.167 136.784 673.167 136.305C673.167 135.833 673.021 135.496 672.729 135.294C672.438 135.084 672.063 134.931 671.606 134.833L669.81 134.418C668.919 134.216 668.26 133.875 667.833 133.396C667.414 132.917 667.204 132.333 667.204 131.644C667.204 130.708 667.556 129.959 668.26 129.398C668.971 128.836 669.892 128.556 671.022 128.556C672.175 128.556 673.108 128.844 673.819 129.42C674.538 129.997 674.912 130.761 674.942 131.711H673.078C673.063 131.187 672.861 130.776 672.471 130.476C672.089 130.177 671.599 130.027 671 130.027C670.431 130.027 669.978 130.154 669.641 130.409C669.312 130.663 669.147 131.019 669.147 131.476C669.147 131.902 669.278 132.213 669.54 132.408C669.81 132.602 670.161 132.745 670.596 132.834L672.64 133.295C673.486 133.482 674.115 133.826 674.526 134.328C674.938 134.822 675.144 135.421 675.144 136.125C675.144 137.091 674.773 137.858 674.032 138.427C673.299 138.996 672.314 139.281 671.079 139.281ZM687.677 128.769C688.014 128.769 688.336 128.799 688.643 128.859V130.487C688.471 130.457 688.231 130.442 687.924 130.442C687.003 130.442 686.292 130.716 685.791 131.262C685.296 131.809 685.049 132.565 685.049 133.531V139H683.14V128.859H684.825L685.049 130.397C685.222 129.873 685.543 129.473 686.015 129.196C686.494 128.911 687.048 128.769 687.677 128.769ZM699.806 135.968C699.574 136.964 699.013 137.765 698.122 138.371C697.231 138.978 696.19 139.281 695 139.281C693.974 139.281 693.068 139.056 692.282 138.607C691.503 138.15 690.897 137.518 690.462 136.709C690.036 135.893 689.822 134.953 689.822 133.89C689.822 132.834 690.039 131.902 690.474 131.094C690.915 130.278 691.522 129.653 692.293 129.218C693.072 128.777 693.951 128.556 694.932 128.556C695.898 128.556 696.744 128.762 697.47 129.173C698.196 129.578 698.762 130.143 699.166 130.869C699.578 131.595 699.784 132.426 699.784 133.362C699.784 133.871 699.754 134.257 699.694 134.519H691.709C691.739 135.485 692.057 136.26 692.664 136.844C693.27 137.42 694.049 137.708 695 137.708C695.703 137.708 696.317 137.551 696.841 137.237C697.373 136.922 697.74 136.499 697.942 135.968H699.806ZM697.852 133.138C697.837 132.232 697.56 131.513 697.021 130.981C696.482 130.442 695.778 130.173 694.91 130.173C693.989 130.173 693.236 130.442 692.652 130.981C692.068 131.513 691.761 132.232 691.731 133.138H697.852ZM705.668 139.281C704.486 139.281 703.512 138.996 702.749 138.427C701.992 137.858 701.584 137.106 701.524 136.17H703.389C703.434 136.694 703.658 137.098 704.062 137.383C704.467 137.667 705.002 137.81 705.668 137.81C706.327 137.81 706.84 137.679 707.207 137.417C707.574 137.154 707.757 136.784 707.757 136.305C707.757 135.833 707.611 135.496 707.319 135.294C707.027 135.084 706.653 134.931 706.196 134.833L704.399 134.418C703.508 134.216 702.85 133.875 702.423 133.396C702.004 132.917 701.794 132.333 701.794 131.644C701.794 130.708 702.146 129.959 702.85 129.398C703.561 128.836 704.482 128.556 705.612 128.556C706.765 128.556 707.697 128.844 708.409 129.42C709.127 129.997 709.502 130.761 709.532 131.711H707.667C707.653 131.187 707.45 130.776 707.061 130.476C706.679 130.177 706.189 130.027 705.59 130.027C705.021 130.027 704.568 130.154 704.231 130.409C703.902 130.663 703.737 131.019 703.737 131.476C703.737 131.902 703.868 132.213 704.13 132.408C704.399 132.602 704.751 132.745 705.186 132.834L707.229 133.295C708.076 133.482 708.704 133.826 709.116 134.328C709.528 134.822 709.734 135.421 709.734 136.125C709.734 137.091 709.363 137.858 708.622 138.427C707.888 138.996 706.904 139.281 705.668 139.281ZM721.458 135.968C721.226 136.964 720.665 137.765 719.774 138.371C718.883 138.978 717.842 139.281 716.652 139.281C715.626 139.281 714.72 139.056 713.934 138.607C713.155 138.15 712.549 137.518 712.115 136.709C711.688 135.893 711.475 134.953 711.475 133.89C711.475 132.834 711.692 131.902 712.126 131.094C712.568 130.278 713.174 129.653 713.945 129.218C714.724 128.777 715.604 128.556 716.584 128.556C717.55 128.556 718.396 128.762 719.123 129.173C719.849 129.578 720.414 130.143 720.818 130.869C721.23 131.595 721.436 132.426 721.436 133.362C721.436 133.871 721.406 134.257 721.346 134.519H713.361C713.391 135.485 713.709 136.26 714.316 136.844C714.922 137.42 715.701 137.708 716.652 137.708C717.356 137.708 717.97 137.551 718.494 137.237C719.025 136.922 719.392 136.499 719.594 135.968H721.458ZM719.504 133.138C719.489 132.232 719.212 131.513 718.673 130.981C718.134 130.442 717.431 130.173 716.562 130.173C715.641 130.173 714.889 130.442 714.305 130.981C713.721 131.513 713.414 132.232 713.384 133.138H719.504ZM728.399 128.769C728.736 128.769 729.058 128.799 729.365 128.859V130.487C729.193 130.457 728.953 130.442 728.646 130.442C727.725 130.442 727.014 130.716 726.512 131.262C726.018 131.809 725.771 132.565 725.771 133.531V139H723.862V128.859H725.546L725.771 130.397C725.943 129.873 726.265 129.473 726.737 129.196C727.216 128.911 727.77 128.769 728.399 128.769ZM732.442 128.859L733.632 132.06C733.999 133.04 734.362 134.017 734.722 134.991C735.089 135.964 735.332 136.627 735.452 136.979C735.586 136.612 735.837 135.942 736.204 134.968C736.578 133.995 736.957 133.025 737.338 132.06L738.607 128.859H740.606L736.373 139H734.463L730.375 128.859H732.442ZM751.399 135.968C751.167 136.964 750.605 137.765 749.714 138.371C748.823 138.978 747.783 139.281 746.592 139.281C745.567 139.281 744.661 139.056 743.875 138.607C743.096 138.15 742.489 137.518 742.055 136.709C741.628 135.893 741.415 134.953 741.415 133.89C741.415 132.834 741.632 131.902 742.066 131.094C742.508 130.278 743.115 129.653 743.886 129.218C744.664 128.777 745.544 128.556 746.525 128.556C747.491 128.556 748.337 128.762 749.063 129.173C749.789 129.578 750.354 130.143 750.759 130.869C751.171 131.595 751.376 132.426 751.376 133.362C751.376 133.871 751.347 134.257 751.287 134.519H743.302C743.332 135.485 743.65 136.26 744.256 136.844C744.863 137.42 745.641 137.708 746.592 137.708C747.296 137.708 747.91 137.551 748.434 137.237C748.966 136.922 749.333 136.499 749.535 135.968H751.399ZM749.445 133.138C749.43 132.232 749.153 131.513 748.614 130.981C748.075 130.442 747.371 130.173 746.502 130.173C745.582 130.173 744.829 130.442 744.245 130.981C743.661 131.513 743.354 132.232 743.324 133.138H749.445ZM763.629 123.221V139H762.068L761.899 137.181C761.577 137.81 761.068 138.319 760.372 138.708C759.676 139.09 758.89 139.281 758.014 139.281C757.063 139.281 756.217 139.06 755.476 138.618C754.734 138.169 754.154 137.54 753.735 136.731C753.323 135.915 753.117 134.976 753.117 133.913C753.117 132.857 753.327 131.925 753.746 131.116C754.173 130.3 754.757 129.671 755.498 129.229C756.239 128.78 757.085 128.556 758.036 128.556C758.882 128.556 759.631 128.717 760.282 129.039C760.934 129.361 761.435 129.806 761.787 130.375V123.221H763.629ZM758.339 137.551C759.335 137.551 760.14 137.218 760.754 136.552C761.368 135.885 761.675 134.991 761.675 133.868C761.675 132.782 761.372 131.914 760.765 131.262C760.159 130.611 759.365 130.285 758.384 130.285C757.374 130.285 756.569 130.618 755.97 131.285C755.371 131.951 755.071 132.827 755.071 133.913C755.071 134.998 755.371 135.878 755.97 136.552C756.569 137.218 757.359 137.551 758.339 137.551ZM777.791 128.556C778.741 128.556 779.587 128.78 780.329 129.229C781.077 129.671 781.661 130.3 782.081 131.116C782.5 131.925 782.709 132.857 782.709 133.913C782.709 134.968 782.504 135.904 782.092 136.72C781.68 137.536 781.1 138.169 780.351 138.618C779.61 139.06 778.764 139.281 777.813 139.281C776.937 139.281 776.158 139.094 775.477 138.719C774.796 138.337 774.279 137.825 773.927 137.181L773.77 139H772.198V123.221H774.062V130.375C774.414 129.806 774.919 129.361 775.578 129.039C776.237 128.717 776.974 128.556 777.791 128.556ZM777.487 137.551C778.468 137.551 779.262 137.218 779.868 136.552C780.475 135.885 780.778 135.006 780.778 133.913C780.778 132.827 780.475 131.951 779.868 131.285C779.262 130.618 778.461 130.285 777.465 130.285C776.469 130.285 775.675 130.607 775.084 131.251C774.5 131.895 774.208 132.767 774.208 133.868C774.208 134.991 774.504 135.885 775.095 136.552C775.694 137.218 776.492 137.551 777.487 137.551ZM793.974 128.859L789.335 140.977C788.969 141.882 788.508 142.564 787.954 143.021C787.4 143.485 786.64 143.717 785.674 143.717C785.165 143.717 784.637 143.638 784.091 143.481V141.92C784.151 141.935 784.3 141.965 784.54 142.01C784.787 142.055 785.064 142.077 785.371 142.077C786.03 142.077 786.513 141.946 786.82 141.684C787.127 141.43 787.381 141.033 787.583 140.494L787.954 139.528L783.608 128.859H785.652L788.853 137.136L791.952 128.859H793.974ZM806.967 128.556C807.918 128.556 808.76 128.78 809.494 129.229C810.235 129.671 810.816 130.304 811.235 131.127C811.654 131.944 811.864 132.879 811.864 133.935C811.864 134.976 811.654 135.904 811.235 136.72C810.816 137.536 810.232 138.169 809.483 138.618C808.742 139.06 807.896 139.281 806.945 139.281C806.114 139.281 805.373 139.124 804.721 138.809C804.07 138.495 803.568 138.053 803.216 137.484V143.526H801.352V128.859H802.924L803.082 130.656C803.418 130.027 803.935 129.521 804.631 129.14C805.328 128.75 806.106 128.556 806.967 128.556ZM806.619 137.574C807.615 137.574 808.416 137.237 809.022 136.563C809.629 135.889 809.932 135.013 809.932 133.935C809.932 132.834 809.629 131.955 809.022 131.296C808.416 130.637 807.622 130.308 806.642 130.308C805.646 130.308 804.848 130.641 804.25 131.307C803.658 131.973 803.362 132.868 803.362 133.991C803.362 135.092 803.658 135.964 804.25 136.608C804.848 137.252 805.638 137.574 806.619 137.574ZM815.39 126.377C814.993 126.377 814.66 126.242 814.391 125.973C814.121 125.703 813.986 125.37 813.986 124.973C813.986 124.591 814.121 124.269 814.391 124.007C814.66 123.745 814.993 123.614 815.39 123.614C815.802 123.614 816.139 123.745 816.401 124.007C816.663 124.269 816.794 124.591 816.794 124.973C816.794 125.355 816.663 125.684 816.401 125.961C816.146 126.238 815.809 126.377 815.39 126.377ZM814.447 128.859H816.356V139H814.447V128.859ZM820.511 139H818.355L821.848 133.958L818.31 128.859H820.556L823.117 132.655L825.644 128.859H827.856L824.285 133.958L827.8 139H825.554C824.738 137.832 823.884 136.597 822.993 135.294L820.511 139ZM838.75 135.968C838.517 136.964 837.956 137.765 837.065 138.371C836.174 138.978 835.133 139.281 833.943 139.281C832.917 139.281 832.011 139.056 831.225 138.607C830.446 138.15 829.84 137.518 829.406 136.709C828.979 135.893 828.766 134.953 828.766 133.89C828.766 132.834 828.983 131.902 829.417 131.094C829.859 130.278 830.465 129.653 831.236 129.218C832.015 128.777 832.895 128.556 833.875 128.556C834.841 128.556 835.687 128.762 836.414 129.173C837.14 129.578 837.705 130.143 838.109 130.869C838.521 131.595 838.727 132.426 838.727 133.362C838.727 133.871 838.697 134.257 838.637 134.519H830.652C830.682 135.485 831 136.26 831.607 136.844C832.213 137.42 832.992 137.708 833.943 137.708C834.647 137.708 835.261 137.551 835.785 137.237C836.316 136.922 836.683 136.499 836.885 135.968H838.75ZM836.795 133.138C836.78 132.232 836.503 131.513 835.964 130.981C835.425 130.442 834.722 130.173 833.853 130.173C832.932 130.173 832.18 130.442 831.596 130.981C831.012 131.513 830.705 132.232 830.675 133.138H836.795ZM841.153 123.221H843.062V139H841.153V123.221ZM849.733 139.281C848.55 139.281 847.577 138.996 846.813 138.427C846.057 137.858 845.649 137.106 845.589 136.17H847.453C847.498 136.694 847.723 137.098 848.127 137.383C848.531 137.667 849.067 137.81 849.733 137.81C850.392 137.81 850.905 137.679 851.271 137.417C851.638 137.154 851.822 136.784 851.822 136.305C851.822 135.833 851.676 135.496 851.384 135.294C851.092 135.084 850.717 134.931 850.261 134.833L848.464 134.418C847.573 134.216 846.914 133.875 846.487 133.396C846.068 132.917 845.858 132.333 845.858 131.644C845.858 130.708 846.21 129.959 846.914 129.398C847.625 128.836 848.546 128.556 849.677 128.556C850.83 128.556 851.762 128.844 852.473 129.42C853.192 129.997 853.566 130.761 853.596 131.711H851.732C851.717 131.187 851.515 130.776 851.125 130.476C850.744 130.177 850.253 130.027 849.654 130.027C849.085 130.027 848.632 130.154 848.295 130.409C847.966 130.663 847.801 131.019 847.801 131.476C847.801 131.902 847.932 132.213 848.194 132.408C848.464 132.602 848.816 132.745 849.25 132.834L851.294 133.295C852.14 133.482 852.769 133.826 853.181 134.328C853.592 134.822 853.798 135.421 853.798 136.125C853.798 137.091 853.428 137.858 852.687 138.427C851.953 138.996 850.968 139.281 849.733 139.281ZM861.929 128.556C862.88 128.556 863.722 128.78 864.456 129.229C865.197 129.671 865.778 130.304 866.197 131.127C866.616 131.944 866.826 132.879 866.826 133.935C866.826 134.976 866.616 135.904 866.197 136.72C865.778 137.536 865.194 138.169 864.445 138.618C863.704 139.06 862.858 139.281 861.907 139.281C861.076 139.281 860.334 139.124 859.683 138.809C859.032 138.495 858.53 138.053 858.178 137.484V143.526H856.314V128.859H857.886L858.043 130.656C858.38 130.027 858.897 129.521 859.593 129.14C860.29 128.75 861.068 128.556 861.929 128.556ZM861.581 137.574C862.577 137.574 863.378 137.237 863.984 136.563C864.591 135.889 864.894 135.013 864.894 133.935C864.894 132.834 864.591 131.955 863.984 131.296C863.378 130.637 862.584 130.308 861.604 130.308C860.608 130.308 859.81 130.641 859.211 131.307C858.62 131.973 858.324 132.868 858.324 133.991C858.324 135.092 858.62 135.964 859.211 136.608C859.81 137.252 860.6 137.574 861.581 137.574ZM879.19 128.859V139H877.394V137.203C877.057 137.832 876.54 138.337 875.844 138.719C875.147 139.094 874.361 139.281 873.485 139.281C872.549 139.281 871.715 139.06 870.981 138.618C870.255 138.169 869.689 137.544 869.285 136.743C868.881 135.934 868.679 135.006 868.679 133.958C868.679 132.887 868.888 131.944 869.308 131.127C869.734 130.304 870.318 129.671 871.06 129.229C871.801 128.78 872.654 128.556 873.62 128.556C874.481 128.556 875.241 128.728 875.9 129.072C876.559 129.417 877.072 129.888 877.438 130.487L877.607 128.859H879.19ZM873.901 137.551C874.897 137.551 875.701 137.218 876.315 136.552C876.929 135.885 877.236 134.991 877.236 133.868C877.236 132.782 876.933 131.914 876.327 131.262C875.72 130.611 874.927 130.285 873.946 130.285C872.935 130.285 872.13 130.618 871.531 131.285C870.932 131.951 870.633 132.827 870.633 133.913C870.633 134.998 870.932 135.878 871.531 136.552C872.13 137.218 872.92 137.551 873.901 137.551ZM886.883 128.769C887.22 128.769 887.542 128.799 887.849 128.859V130.487C887.677 130.457 887.437 130.442 887.13 130.442C886.209 130.442 885.498 130.716 884.997 131.262C884.502 131.809 884.255 132.565 884.255 133.531V139H882.346V128.859H884.031L884.255 130.397C884.428 129.873 884.75 129.473 885.221 129.196C885.7 128.911 886.254 128.769 886.883 128.769ZM895.138 132.632L898.619 139H896.474L893.79 134.014L891.757 136.125V139H889.848V123.221H891.757V133.755L896.429 128.859H898.776L895.138 132.632ZM901.46 139.281C901.011 139.281 900.644 139.139 900.36 138.854C900.083 138.569 899.944 138.229 899.944 137.832C899.944 137.42 900.083 137.068 900.36 136.776C900.644 136.477 901.011 136.327 901.46 136.327C901.887 136.327 902.243 136.473 902.527 136.765C902.812 137.057 902.954 137.413 902.954 137.832C902.954 138.229 902.812 138.569 902.527 138.854C902.243 139.139 901.887 139.281 901.46 139.281ZM904.279 133.913C904.279 132.857 904.5 131.925 904.942 131.116C905.391 130.3 906.009 129.671 906.795 129.229C907.589 128.78 908.498 128.556 909.524 128.556C910.827 128.556 911.924 128.889 912.814 129.555C913.705 130.222 914.241 131.124 914.42 132.262H912.466C912.317 131.633 911.976 131.139 911.444 130.779C910.913 130.42 910.265 130.24 909.501 130.24C908.521 130.24 907.727 130.57 907.121 131.229C906.514 131.887 906.211 132.79 906.211 133.935C906.211 135.036 906.503 135.923 907.087 136.597C907.671 137.263 908.476 137.596 909.501 137.596C910.265 137.596 910.917 137.413 911.456 137.046C911.995 136.679 912.332 136.196 912.466 135.597H914.42C914.233 136.698 913.69 137.589 912.792 138.27C911.901 138.944 910.819 139.281 909.546 139.281C908.506 139.281 907.585 139.06 906.784 138.618C905.99 138.169 905.372 137.54 904.931 136.731C904.496 135.915 904.279 134.976 904.279 133.913ZM916.206 133.935C916.206 132.924 916.434 132.015 916.891 131.206C917.355 130.39 917.999 129.746 918.823 129.274C919.654 128.795 920.597 128.556 921.653 128.556C922.708 128.556 923.656 128.795 924.494 129.274C925.333 129.746 925.98 130.39 926.437 131.206C926.901 132.015 927.133 132.924 927.133 133.935C927.133 134.931 926.897 135.837 926.426 136.653C925.962 137.469 925.314 138.113 924.483 138.584C923.659 139.049 922.716 139.281 921.653 139.281C920.612 139.281 919.676 139.049 918.845 138.584C918.022 138.113 917.374 137.473 916.902 136.664C916.438 135.848 916.206 134.938 916.206 133.935ZM918.183 133.935C918.183 134.983 918.508 135.852 919.16 136.541C919.811 137.229 920.642 137.574 921.653 137.574C922.694 137.574 923.54 137.229 924.191 136.541C924.85 135.852 925.179 134.983 925.179 133.935C925.179 132.879 924.854 132.003 924.202 131.307C923.551 130.611 922.701 130.263 921.653 130.263C920.642 130.263 919.811 130.611 919.16 131.307C918.508 132.003 918.183 132.879 918.183 133.935Z" fill="#415E56"/>
<path d="M1243.62 22.2902V25.5312H1241.69C1240.99 25.5312 1240.51 25.6786 1240.26 25.9732C1240.02 26.2679 1239.9 26.7098 1239.9 27.2991V29.6194H1243.49L1243.01 33.2533H1239.9V42.5714H1236.14V33.2533H1233.01V29.6194H1236.14V26.9431C1236.14 25.4208 1236.57 24.2422 1237.42 23.4074C1238.27 22.5644 1239.4 22.1429 1240.82 22.1429C1242.02 22.1429 1242.95 22.192 1243.62 22.2902Z" fill="#035755"/>
<path d="M1295.42 35.9911L1301.37 32.9219L1295.42 29.8158V35.9911ZM1297.7 25.4085C1299.07 25.4085 1300.4 25.4289 1301.67 25.4699C1302.96 25.5026 1303.9 25.5394 1304.5 25.5804L1305.39 25.6295C1305.4 25.6295 1305.47 25.6376 1305.6 25.654C1305.73 25.6622 1305.83 25.6745 1305.88 25.6908C1305.94 25.699 1306.04 25.7154 1306.17 25.74C1306.31 25.7645 1306.42 25.7972 1306.52 25.8382C1306.62 25.8791 1306.73 25.9323 1306.87 25.9978C1307 26.0632 1307.12 26.1451 1307.25 26.2433C1307.37 26.3333 1307.49 26.4397 1307.6 26.5625C1307.65 26.6116 1307.71 26.6894 1307.79 26.7958C1307.87 26.894 1307.99 27.1313 1308.14 27.5078C1308.31 27.8843 1308.42 28.2976 1308.47 28.7478C1308.54 29.2716 1308.59 29.8322 1308.62 30.4297C1308.66 31.019 1308.69 31.4814 1308.7 31.817V32.308V33.9777C1308.7 35.1644 1308.63 36.3512 1308.47 37.5379C1308.42 37.9881 1308.31 38.3973 1308.17 38.7656C1308.02 39.1257 1307.89 39.3754 1307.77 39.5145L1307.6 39.7232C1307.49 39.846 1307.37 39.9565 1307.25 40.0547C1307.12 40.1447 1307 40.2225 1306.87 40.2879C1306.73 40.3452 1306.62 40.3943 1306.52 40.4353C1306.42 40.4762 1306.31 40.5089 1306.17 40.5335C1306.04 40.558 1305.94 40.5785 1305.87 40.5949C1305.81 40.6031 1305.72 40.6153 1305.59 40.6317C1305.47 40.6399 1305.4 40.644 1305.39 40.644C1303.34 40.7995 1300.77 40.8772 1297.7 40.8772C1296 40.8609 1294.53 40.8363 1293.28 40.8036C1292.03 40.7626 1291.21 40.7299 1290.82 40.7054L1290.22 40.6562L1289.78 40.6071C1289.48 40.5662 1289.26 40.5253 1289.1 40.4844C1288.95 40.4435 1288.75 40.3575 1288.48 40.2266C1288.21 40.0956 1287.98 39.9278 1287.79 39.7232C1287.74 39.6741 1287.67 39.6004 1287.59 39.5022C1287.52 39.3958 1287.4 39.1544 1287.24 38.7779C1287.08 38.4014 1286.97 37.9881 1286.92 37.5379C1286.85 37.0141 1286.8 36.4576 1286.76 35.8683C1286.72 35.2708 1286.7 34.8043 1286.7 34.4688V33.9777V32.308C1286.69 31.1213 1286.76 29.9345 1286.92 28.7478C1286.97 28.2976 1287.08 27.8925 1287.22 27.5324C1287.37 27.1641 1287.5 26.9103 1287.62 26.7712L1287.79 26.5625C1287.9 26.4397 1288.02 26.3333 1288.14 26.2433C1288.27 26.1451 1288.39 26.0632 1288.52 25.9978C1288.66 25.9323 1288.77 25.8791 1288.87 25.8382C1288.97 25.7972 1289.08 25.7645 1289.21 25.74C1289.35 25.7154 1289.45 25.699 1289.51 25.6908C1289.56 25.6745 1289.66 25.6622 1289.79 25.654C1289.92 25.6376 1289.99 25.6295 1290 25.6295C1292.05 25.4821 1294.62 25.4085 1297.7 25.4085Z" fill="#F44A45"/>
<path d="M1374.96 28.5022C1374.87 30.4338 1373.52 33.0978 1370.88 36.4944C1368.15 40.0219 1365.85 41.7857 1363.98 41.7857C1362.82 41.7857 1361.84 40.7094 1361.03 38.5569C1360.67 37.2474 1360.13 35.2749 1359.41 32.6395C1358.82 30.4952 1358.18 29.423 1357.49 29.423C1357.34 29.423 1356.82 29.734 1355.93 30.356L1354.98 29.1529C1355.18 28.981 1355.62 28.5882 1356.31 27.9743C1356.99 27.3523 1357.53 26.8776 1357.9 26.5502C1359.18 25.4208 1360.17 24.8233 1360.86 24.7578C1361.64 24.6842 1362.27 24.9133 1362.74 25.4453C1363.22 25.9691 1363.55 26.7999 1363.73 27.9375C1364.1 30.2865 1364.37 31.8129 1364.55 32.5167C1365 34.5547 1365.49 35.5737 1366.02 35.5737C1366.44 35.5737 1367.07 34.9148 1367.91 33.5971C1368.74 32.2794 1369.18 31.2727 1369.25 30.577C1369.35 29.4394 1368.91 28.8705 1367.91 28.8705C1367.44 28.8705 1366.95 28.9769 1366.42 29.1897C1367.41 25.9732 1369.28 24.41 1372.06 24.5C1374.11 24.5655 1375.08 25.8996 1374.96 28.5022Z" fill="#035755"/>
<path d="M1439.73 27.1518C1439.19 27.9539 1438.52 28.6373 1437.75 29.202C1437.75 29.3166 1437.76 29.4885 1437.76 29.7176C1437.76 30.7816 1437.6 31.8456 1437.29 32.9096C1436.98 33.9654 1436.51 34.9803 1435.87 35.9542C1435.24 36.9282 1434.48 37.7917 1433.61 38.5446C1432.73 39.2894 1431.68 39.8869 1430.44 40.3371C1429.21 40.779 1427.88 41 1426.48 41C1424.26 41 1422.23 40.4066 1420.39 39.2199C1420.67 39.2526 1420.99 39.269 1421.34 39.269C1423.19 39.269 1424.83 38.7042 1426.27 37.5748C1425.41 37.5584 1424.64 37.2965 1423.96 36.7891C1423.28 36.2734 1422.81 35.6187 1422.56 34.8248C1422.83 34.8657 1423.08 34.8862 1423.31 34.8862C1423.66 34.8862 1424.01 34.8411 1424.35 34.7511C1423.44 34.5629 1422.67 34.1086 1422.07 33.3884C1421.47 32.66 1421.17 31.817 1421.17 30.8594V30.8103C1421.73 31.1213 1422.33 31.2891 1422.96 31.3136C1422.42 30.9535 1421.99 30.4829 1421.68 29.9018C1421.36 29.3207 1421.2 28.6905 1421.2 28.0112C1421.2 27.2909 1421.38 26.6239 1421.74 26.01C1422.73 27.2295 1423.93 28.2076 1425.35 28.9442C1426.77 29.6726 1428.29 30.0778 1429.91 30.1596C1429.85 29.8486 1429.82 29.5458 1429.82 29.2511C1429.82 28.1544 1430.2 27.2214 1430.97 26.452C1431.75 25.6745 1432.68 25.2857 1433.78 25.2857C1434.93 25.2857 1435.89 25.7031 1436.68 26.5379C1437.57 26.3661 1438.41 26.0469 1439.19 25.5804C1438.89 26.5216 1438.31 27.25 1437.45 27.7656C1438.21 27.6838 1438.97 27.4792 1439.73 27.1518Z" fill="#035755"/>
<path d="M98.199 42.272C99.0057 42.272 99.761 42.1033 100.465 41.766C101.169 41.4287 101.792 40.9447 102.335 40.314L104.425 42.382C103.692 43.2473 102.753 43.9367 101.609 44.45C100.48 44.9633 99.3137 45.22 98.111 45.22C96.9524 45.22 95.867 45.0147 94.855 44.604C93.8577 44.1933 92.9924 43.636 92.259 42.932C91.5257 42.228 90.9464 41.392 90.521 40.424C90.1104 39.456 89.905 38.4147 89.905 37.3C89.905 36.1853 90.1177 35.144 90.543 34.176C90.9684 33.1933 91.5477 32.35 92.281 31.646C93.0144 30.942 93.8797 30.3847 94.877 29.974C95.889 29.5633 96.967 29.358 98.111 29.358C99.343 29.358 100.538 29.622 101.697 30.15C102.856 30.6633 103.794 31.36 104.513 32.24L102.357 34.374C101.814 33.6993 101.176 33.186 100.443 32.834C99.7097 32.4673 98.9324 32.284 98.111 32.284C97.4217 32.284 96.769 32.416 96.153 32.68C95.5517 32.9293 95.031 33.2813 94.591 33.736C94.151 34.176 93.8064 34.704 93.557 35.32C93.3077 35.9213 93.183 36.5813 93.183 37.3C93.183 38.004 93.3077 38.664 93.557 39.28C93.821 39.8813 94.173 40.402 94.613 40.842C95.0677 41.282 95.5957 41.634 96.197 41.898C96.813 42.1473 97.4804 42.272 98.199 42.272ZM121.568 37.3C121.568 38.4 121.356 39.4413 120.93 40.424C120.505 41.392 119.926 42.2353 119.192 42.954C118.474 43.658 117.616 44.2153 116.618 44.626C115.621 45.0367 114.55 45.242 113.406 45.242C112.277 45.242 111.214 45.0367 110.216 44.626C109.219 44.2153 108.354 43.658 107.62 42.954C106.902 42.2353 106.33 41.392 105.904 40.424C105.479 39.4413 105.266 38.4 105.266 37.3C105.266 36.2 105.479 35.166 105.904 34.198C106.33 33.2153 106.902 32.372 107.62 31.668C108.354 30.9493 109.219 30.3847 110.216 29.974C111.214 29.5633 112.277 29.358 113.406 29.358C114.55 29.358 115.621 29.5633 116.618 29.974C117.616 30.3847 118.474 30.9493 119.192 31.668C119.926 32.372 120.505 33.2153 120.93 34.198C121.356 35.166 121.568 36.2 121.568 37.3ZM118.29 37.3C118.29 36.5813 118.166 35.9213 117.916 35.32C117.667 34.704 117.322 34.176 116.882 33.736C116.457 33.2813 115.944 32.9293 115.342 32.68C114.741 32.416 114.096 32.284 113.406 32.284C112.717 32.284 112.072 32.416 111.47 32.68C110.884 32.9293 110.37 33.2813 109.93 33.736C109.505 34.176 109.168 34.704 108.918 35.32C108.669 35.9213 108.544 36.5813 108.544 37.3C108.544 38.004 108.669 38.664 108.918 39.28C109.168 39.896 109.505 40.4313 109.93 40.886C110.37 41.326 110.884 41.678 111.47 41.942C112.072 42.1913 112.717 42.316 113.406 42.316C114.096 42.316 114.741 42.1913 115.342 41.942C115.944 41.678 116.457 41.326 116.882 40.886C117.322 40.4313 117.667 39.896 117.916 39.28C118.166 38.664 118.29 38.004 118.29 37.3ZM127.671 45L121.423 29.6H124.877L129.585 41.766L134.403 29.6H137.703L131.367 45H127.671ZM139.011 45V29.6H142.201V45H139.011ZM145.005 45V29.6H150.923C152.067 29.6 153.138 29.798 154.135 30.194C155.132 30.59 155.99 31.1327 156.709 31.822C157.442 32.5113 158.014 33.3327 158.425 34.286C158.85 35.2393 159.063 36.2587 159.063 37.344C159.063 38.4147 158.85 39.4193 158.425 40.358C158.014 41.2967 157.442 42.1107 156.709 42.8C155.99 43.4747 155.132 44.01 154.135 44.406C153.138 44.802 152.067 45 150.923 45H145.005ZM150.901 32.438H148.195V42.162H150.901C151.576 42.162 152.206 42.0373 152.793 41.788C153.394 41.5387 153.915 41.2013 154.355 40.776C154.795 40.336 155.14 39.8227 155.389 39.236C155.638 38.6493 155.763 38.0187 155.763 37.344C155.763 36.6547 155.638 36.0093 155.389 35.408C155.14 34.8067 154.795 34.286 154.355 33.846C153.915 33.406 153.394 33.0613 152.793 32.812C152.206 32.5627 151.576 32.438 150.901 32.438ZM165.189 37.454H173.461V40.006H165.189V37.454ZM185.3 29.6V45H182.286V32.658L179.272 33.89V31.272L183.386 29.6H185.3ZM192.948 29.336C193.96 29.336 194.884 29.5267 195.72 29.908C196.556 30.2747 197.268 30.7953 197.854 31.47C198.456 32.13 198.918 32.9293 199.24 33.868C199.578 34.8067 199.746 35.8407 199.746 36.97C199.746 38.202 199.563 39.3313 199.196 40.358C198.83 41.37 198.316 42.2353 197.656 42.954C196.996 43.6727 196.197 44.23 195.258 44.626C194.32 45.022 193.286 45.22 192.156 45.22C191.32 45.22 190.492 45.088 189.67 44.824C188.849 44.5453 188.16 44.1787 187.602 43.724L189.318 41.568C189.773 41.92 190.25 42.1767 190.748 42.338C191.247 42.4993 191.79 42.58 192.376 42.58C193.696 42.58 194.73 42.1327 195.478 41.238C196.241 40.3287 196.659 39.0453 196.732 37.388C196.234 37.9453 195.618 38.3853 194.884 38.708C194.151 39.016 193.374 39.17 192.552 39.17C191.775 39.17 191.056 39.0527 190.396 38.818C189.736 38.5833 189.164 38.2607 188.68 37.85C188.211 37.4247 187.844 36.926 187.58 36.354C187.316 35.7673 187.184 35.1293 187.184 34.44C187.184 33.7067 187.331 33.032 187.624 32.416C187.918 31.7853 188.314 31.2427 188.812 30.788C189.326 30.3333 189.934 29.9813 190.638 29.732C191.357 29.468 192.127 29.336 192.948 29.336ZM193.036 36.794C193.726 36.794 194.364 36.6473 194.95 36.354C195.552 36.0607 196.087 35.6427 196.556 35.1C196.322 34.132 195.896 33.3547 195.28 32.768C194.664 32.1813 193.931 31.888 193.08 31.888C192.244 31.888 191.54 32.1227 190.968 32.592C190.411 33.0613 190.132 33.6553 190.132 34.374C190.132 35.0927 190.404 35.6793 190.946 36.134C191.489 36.574 192.186 36.794 193.036 36.794Z" fill="#035755"/>
<path d="M51.9858 36.4549C51.9858 37.6702 52.971 38.6554 54.1864 38.6554H59.191C61.7387 38.6554 64.2557 39.2394 66.5303 40.3871C67.2084 40.7293 67.9873 40.9008 68.8107 40.8459C70.9923 40.7002 72.7609 38.9259 72.9002 36.7438C73.0637 34.1822 71.0349 32.054 68.5084 32.054C67.824 32.054 67.1762 32.2102 66.5988 32.489C64.281 33.608 61.7639 34.2545 59.1901 34.2545H54.1864C52.9711 34.2544 51.9858 35.2396 51.9858 36.4549Z" fill="#FC312F"/>
<path d="M22.1675 50.7418C21.457 50.0314 20.3051 50.0314 19.5947 50.7418L16.6689 53.6676C15.1795 55.157 13.3667 56.287 11.3661 56.9458C10.7696 57.1422 10.2139 57.4972 9.76478 58.0107C8.57459 59.3712 8.57786 61.4425 9.77205 62.7996C11.174 64.3928 13.6042 64.4509 15.0812 62.9739C15.4812 62.5739 15.7686 62.1038 15.9433 61.6033C16.6441 59.5941 17.7377 57.7447 19.2424 56.2401L22.1676 53.3149C22.8779 52.6042 22.8779 51.4523 22.1675 50.7418Z" fill="#FC312F"/>
<path d="M48.5569 24.3537C49.3004 25.0972 50.5057 25.0972 51.2492 24.3537L54.3108 21.2922C55.8694 19.7336 57.7663 18.5512 59.8598 17.8617C60.4839 17.6561 61.0655 17.2847 61.5354 16.7473C62.7809 15.3235 62.7775 13.1562 61.5277 11.7361C60.0607 10.069 57.5176 10.0082 55.9721 11.5537C55.5534 11.9724 55.2528 12.4642 55.0699 12.988C54.3366 15.0904 53.1922 17.0257 51.6178 18.6002L48.5568 21.6613C47.8134 22.4049 47.8134 23.6102 48.5569 24.3537Z" fill="#FC312F"/>
<path d="M36.4538 51.9863C35.2386 51.9863 34.2533 52.9715 34.2533 54.1869V59.1915C34.2533 61.7392 33.6693 64.2561 32.5217 66.5307C32.1795 67.2088 32.0079 67.9878 32.0628 68.8111C32.2085 70.9928 33.9828 72.7614 36.1649 72.9007C38.7266 73.0641 40.8548 71.0353 40.8548 68.5088C40.8548 67.8244 40.6985 67.1767 40.4197 66.5992C39.3007 64.2815 38.6542 61.7644 38.6542 59.1906V54.1869C38.6544 52.9716 37.6691 51.9863 36.4538 51.9863Z" fill="#FFA2A1"/>
<path d="M40.4225 66.5994C39.3035 64.2816 38.6569 61.7645 38.6569 59.1908V54.1869C38.6569 52.9716 37.6718 51.9863 36.4564 51.9863C35.241 51.9863 34.2559 52.9715 34.2559 54.1869V59.1908C34.2559 61.7645 34.9024 64.2815 36.0214 66.5994C36.3002 67.1768 36.4564 67.8246 36.4564 68.509C36.4564 70.1367 35.5724 71.5567 34.259 72.3181C34.8287 72.6495 35.4777 72.8568 36.1676 72.9008C38.7293 73.0643 40.8575 71.0355 40.8575 68.509C40.8575 67.8246 40.7013 67.1768 40.4225 66.5994Z" fill="#FC312F"/>
<path d="M20.0328 27.3669C24.0028 27.3669 27.2211 24.1486 27.2211 20.1786C27.2211 16.2086 24.0028 12.9902 20.0328 12.9902C16.0628 12.9902 12.8445 16.2086 12.8445 20.1786C12.8445 24.1486 16.0628 27.3669 20.0328 27.3669Z" fill="#FF807E"/>
<path d="M20.0304 12.9902C19.2627 12.9902 18.5236 13.1118 17.8298 13.3347C20.7232 14.2643 22.8176 16.9764 22.8176 20.1786C22.8176 23.3808 20.7232 26.0928 17.8298 27.0224C18.5235 27.2453 19.2625 27.3669 20.0304 27.3669C24.0004 27.3669 27.2187 24.1486 27.2187 20.1786C27.2187 16.2085 24.0003 12.9902 20.0304 12.9902Z" fill="#FC312F"/>
<path d="M36.4554 59.927C49.4187 59.927 59.9275 49.4182 59.9275 36.4549C59.9275 23.4917 49.4187 12.9829 36.4554 12.9829C23.4922 12.9829 12.9834 23.4917 12.9834 36.4549C12.9834 49.4182 23.4922 59.927 36.4554 59.927Z" fill="#FFBFBE"/>
<path d="M36.4564 12.9829C35.7142 12.9829 34.9805 13.0189 34.2559 13.0864C46.187 14.196 55.5275 24.234 55.5275 36.4549C55.5275 48.6759 46.1872 58.7138 34.256 59.8234C34.9805 59.8908 35.7143 59.927 36.4565 59.927C49.4199 59.927 59.9286 49.4183 59.9286 36.4549C59.9286 23.4916 49.4197 12.9829 36.4564 12.9829Z" fill="#FFA2A2"/>
<path d="M45.2549 33.1994C47.888 33.1994 50.0226 31.0648 50.0226 28.4316C50.0226 25.7984 47.888 23.6638 45.2549 23.6638C42.6217 23.6638 40.4871 25.7984 40.4871 28.4316C40.4871 31.0648 42.6217 33.1994 45.2549 33.1994Z" fill="#FFA2A1"/>
<path d="M45.2582 23.6638C44.4641 23.6638 43.7161 23.8591 43.0576 24.2024C44.5829 24.9977 45.6249 26.5925 45.6249 28.4316C45.6249 30.2707 44.5829 31.8656 43.0576 32.6608C43.7161 33.0041 44.4641 33.1994 45.2582 33.1994C47.8913 33.1994 50.026 31.0648 50.026 28.4316C50.026 25.7984 47.8913 23.6638 45.2582 23.6638Z" fill="#FF807E"/>
<path d="M28.0629 48.8515C29.8453 48.8515 31.2903 47.4066 31.2903 45.6241C31.2903 43.8417 29.8453 42.3967 28.0629 42.3967C26.2804 42.3967 24.8354 43.8417 24.8354 45.6241C24.8354 47.4066 26.2804 48.8515 28.0629 48.8515Z" fill="#FF807E"/>
<path d="M52.4232 58.264C54.8537 58.264 56.8241 56.2937 56.8241 53.8631C56.8241 51.4325 54.8537 49.4622 52.4232 49.4622C49.9926 49.4622 48.0222 51.4325 48.0222 53.8631C48.0222 56.2937 49.9926 58.264 52.4232 58.264Z" fill="#FC312F"/>
<path d="M52.4237 49.4622C51.6218 49.4622 50.8707 49.6778 50.2231 50.0524C51.5382 50.8134 52.4237 52.2344 52.4237 53.8632C52.4237 55.492 51.5382 56.9129 50.2231 57.6741C50.8707 58.0487 51.6218 58.2643 52.4237 58.2643C54.8544 58.2643 56.8247 56.2939 56.8247 53.8634C56.8247 51.4329 54.8544 49.4622 52.4237 49.4622Z" fill="#FF807E"/>
<path d="M20.9236 36.4549C20.9236 37.6702 19.9384 38.6554 18.723 38.6554H13.7184C11.1707 38.6554 8.65376 39.2394 6.37917 40.3871C5.70105 40.7293 4.92211 40.9008 4.09874 40.8459C1.91714 40.7002 0.148502 38.9259 0.00923265 36.7438C-0.154245 34.1822 1.87456 32.054 4.40106 32.054C5.08545 32.054 5.73323 32.2102 6.31068 32.489C8.62842 33.608 11.1455 34.2545 13.7193 34.2545H18.7232C19.9383 34.2544 20.9236 35.2396 20.9236 36.4549Z" fill="#FC312F"/>
<path d="M36.4537 20.9236C37.6689 20.9236 38.6542 19.9384 38.6542 18.723V13.7184C38.6542 11.1707 39.2382 8.65376 40.3858 6.37917C40.728 5.70105 40.8996 4.92211 40.8447 4.09874C40.699 1.91714 38.9246 0.148502 36.7426 0.00923265C34.1809 -0.154245 32.0527 1.87456 32.0527 4.40106C32.0527 5.08545 32.2089 5.73323 32.4878 6.31068C33.6068 8.62842 34.2533 11.1455 34.2533 13.7193V18.7232C34.2531 19.9383 35.2384 20.9236 36.4537 20.9236Z" fill="#FFA2A1"/>
<path d="M40.8462 4.09873C40.7006 1.91713 38.9262 0.14849 36.7442 0.00922096C35.8328 -0.0490216 34.9771 0.171417 34.2517 0.591931C35.4841 1.30864 36.3455 2.60692 36.4451 4.09873C36.5001 4.9221 36.3285 5.70104 35.9863 6.37916C34.8387 8.65375 34.2547 11.1707 34.2547 13.7184V18.723C34.2547 19.9383 35.2398 20.9236 36.4552 20.9236C37.6707 20.9236 38.6558 19.9384 38.6558 18.723V13.7184C38.6558 11.1707 39.2398 8.65375 40.3874 6.37916C40.7296 5.70104 40.9013 4.9221 40.8462 4.09873Z" fill="#FC312F"/>
<path d="M68.5126 32.0564C67.8287 32.0564 67.1813 32.2125 66.6042 32.4912C66.5021 32.5404 66.399 32.5877 66.2961 32.6351C67.6977 33.4374 68.6154 34.9886 68.5034 36.7436C68.4075 38.2445 67.5403 39.5522 66.2981 40.2693C66.3773 40.3076 66.4569 40.3451 66.5355 40.3847C67.2134 40.7266 67.9917 40.8982 68.8147 40.8432C70.995 40.6975 72.7626 38.9243 72.9017 36.7436C73.0652 34.1833 71.0376 32.0564 68.5126 32.0564Z" fill="#FF807E"/>
</svg>
