<svg width="210" height="78" viewBox="0 0 210 78" fill="none" xmlns="http://www.w3.org/2000/svg">
<rect x="0.842773" width="209" height="78" rx="39" fill="#F44A45"/>
<path d="M82.96 36.9023C82.96 36.0358 83.1676 35.2803 83.583 34.6357C84.0055 33.9912 84.5964 33.4935 85.3555 33.1426C86.1217 32.7917 87.0026 32.6162 87.998 32.6162C88.9792 32.6162 89.8529 32.7881 90.6191 33.1318C91.3854 33.4756 91.9834 33.9626 92.4131 34.5928C92.8428 35.223 93.0576 35.957 93.0576 36.7949H90.4043C90.39 36.1934 90.1501 35.71 89.6846 35.3447C89.2262 34.9723 88.6211 34.7861 87.8691 34.7861C87.1816 34.7861 86.6302 34.958 86.2148 35.3018C85.8066 35.6383 85.6025 36.0752 85.6025 36.6123C85.6025 37.1423 85.7816 37.5326 86.1396 37.7832C86.5049 38.0339 86.9883 38.2308 87.5898 38.374L89.8994 38.9434C90.9521 39.194 91.8044 39.6559 92.4561 40.3291C93.1077 40.9951 93.4336 41.8545 93.4336 42.9072C93.4336 43.7881 93.2116 44.5579 92.7676 45.2168C92.3307 45.8757 91.7077 46.3877 90.8984 46.7529C90.0964 47.111 89.1618 47.29 88.0947 47.29C86.512 47.29 85.223 46.9069 84.2275 46.1406C83.2393 45.3672 82.7021 44.318 82.6162 42.9932H85.2695C85.2982 43.652 85.5739 44.1712 86.0967 44.5508C86.6195 44.9232 87.2998 45.1094 88.1377 45.1094C88.9469 45.1094 89.5807 44.9375 90.0391 44.5938C90.4974 44.25 90.7266 43.7773 90.7266 43.1758C90.7266 42.6602 90.5654 42.2699 90.2432 42.0049C89.9209 41.7399 89.4984 41.543 88.9756 41.4141L86.6123 40.8447C85.4521 40.5654 84.5534 40.0999 83.916 39.4482C83.2786 38.7894 82.96 37.9408 82.96 36.9023ZM104.777 43.9385C104.562 44.9411 104.015 45.7503 103.134 46.3662C102.253 46.9821 101.204 47.29 99.9863 47.29C98.9766 47.29 98.085 47.0716 97.3115 46.6348C96.5452 46.1908 95.9473 45.5749 95.5176 44.7871C95.0951 43.9922 94.8838 43.0791 94.8838 42.0479C94.8838 41.0094 95.0986 40.1035 95.5283 39.3301C95.9652 38.5495 96.5632 37.9479 97.3223 37.5254C98.0885 37.0957 98.9551 36.8809 99.9219 36.8809C100.874 36.8809 101.716 37.085 102.446 37.4932C103.184 37.8942 103.753 38.4456 104.154 39.1475C104.555 39.8493 104.756 40.6549 104.756 41.5645C104.756 42.0514 104.72 42.4561 104.648 42.7783H97.3008C97.3294 43.5231 97.5872 44.1247 98.0742 44.583C98.5684 45.0342 99.2057 45.2598 99.9863 45.2598C100.574 45.2598 101.078 45.1452 101.501 44.916C101.931 44.6797 102.224 44.3538 102.382 43.9385H104.777ZM102.253 41.124C102.239 40.4365 102.009 39.8958 101.565 39.502C101.129 39.1009 100.559 38.9004 99.8574 38.9004C99.1413 38.9004 98.5505 39.1045 98.085 39.5127C97.6195 39.9137 97.3724 40.4508 97.3438 41.124H102.253ZM112.168 36.8809C113.307 36.8809 114.205 37.2425 114.864 37.9658C115.53 38.682 115.863 39.6702 115.863 40.9307V47H113.393V41.5C113.393 39.903 112.741 39.1045 111.438 39.1045C110.736 39.1045 110.191 39.3086 109.805 39.7168C109.425 40.125 109.235 40.6764 109.235 41.3711V47H106.797V37.1924H108.838L109.021 38.374C109.328 37.9229 109.765 37.5612 110.331 37.2891C110.897 37.0169 111.509 36.8809 112.168 36.8809ZM128.432 31.9072V47H126.38L126.208 45.5713C125.886 46.1012 125.413 46.5202 124.79 46.8281C124.167 47.1361 123.465 47.29 122.685 47.29C121.761 47.29 120.934 47.0752 120.203 46.6455C119.48 46.2087 118.914 45.5964 118.506 44.8086C118.098 44.0137 117.894 43.1006 117.894 42.0693C117.894 41.0452 118.098 40.1429 118.506 39.3623C118.914 38.5745 119.48 37.9658 120.203 37.5361C120.934 37.0993 121.761 36.8809 122.685 36.8809C123.401 36.8809 124.042 36.999 124.607 37.2354C125.173 37.4645 125.632 37.7939 125.982 38.2236V31.9072H128.432ZM123.146 45.0664C123.97 45.0664 124.64 44.7871 125.155 44.2285C125.678 43.6699 125.939 42.943 125.939 42.0479C125.939 41.1527 125.685 40.4365 125.177 39.8994C124.675 39.3551 124.006 39.083 123.168 39.083C122.33 39.083 121.657 39.3587 121.148 39.9102C120.647 40.4544 120.396 41.1742 120.396 42.0693C120.396 42.9645 120.651 43.6878 121.159 44.2393C121.668 44.7907 122.33 45.0664 123.146 45.0664Z" fill="white"/>
</svg>
