<svg width="169" height="172" viewBox="0 0 169 172" fill="none" xmlns="http://www.w3.org/2000/svg">
<path d="M108.78 121.506C122.117 128.319 171.374 143.448 163.79 112.136C161.89 104.338 156.346 97.7653 150.033 93.3836C142.804 88.3493 135.68 86.6082 129.36 80.1756C121.66 72.4275 113.386 65.4254 104.645 59.2601C86.6963 46.3615 66.8278 35.3305 45.8883 33.6788C31.2028 32.5262 8.84368 39.8496 7.11542 58.7384C4.59196 86.2372 45.4726 80.1141 60.022 85.9593C73.8237 91.4837 84.3216 104.545 96.59 113.865C100.465 116.802 104.545 119.36 108.78 121.506Z" fill="url(#paint0_linear)"/>
<defs>
<linearGradient id="paint0_linear" x1="164.736" y1="111.296" x2="-11.8229" y2="86.4197" gradientUnits="userSpaceOnUse">
<stop stop-color="#FFE1E2"/>
<stop offset="1" stop-color="#FFF8F8"/>
</linearGradient>
</defs>
</svg>
